<?xml version="1.0" encoding="UTF-8" standalone="no"?>
<svg
   height="960"
   viewBox="0 0 960 960"
   width="960"
   version="1.1"
   id="svg3"
   sodipodi:docname="ngenic-tune-sensor.svg"
   inkscape:version="1.3.1 (9b9bdc1480, 2023-11-25, custom)"
   xmlns:inkscape="http://www.inkscape.org/namespaces/inkscape"
   xmlns:sodipodi="http://sodipodi.sourceforge.net/DTD/sodipodi-0.dtd"
   xmlns="http://www.w3.org/2000/svg"
   xmlns:svg="http://www.w3.org/2000/svg">
  <defs
     id="defs3" />
  <sodipodi:namedview
     id="namedview3"
     pagecolor="#ffffff"
     bordercolor="#000000"
     borderopacity="0.25"
     inkscape:showpageshadow="2"
     inkscape:pageopacity="0.0"
     inkscape:pagecheckerboard="0"
     inkscape:deskcolor="#d1d1d1"
     inkscape:zoom="0.3625"
     inkscape:cx="-175.17241"
     inkscape:cy="1113.1034"
     inkscape:window-width="1452"
     inkscape:window-height="1240"
     inkscape:window-x="66"
     inkscape:window-y="32"
     inkscape:window-maximized="0"
     inkscape:current-layer="svg3" />
  <g
     fill="#000"
     fill-rule="evenodd"
     id="g3">
    <path
       d="m277.377274 3c-54.789709 0-121.418409 25.6332581-175.422542 66.2186288-58.4698922 43.9414922-94.954732 99.4439342-94.954732 154.5589442v512.446886c0 54.848651 38.7715109 109.982104 100.412012 154.75113 54.875614 39.85574 121.332729 66.024411 169.965262 66.024411h1.418139 1.431451l2.913352-.02676 1.203784-.01224 1.217848.023516c4.346883.059848 8.713955-.053735 13.095676-.341661l1.425476-.101855 2.035343-.085106c10.963103-.490044 21.529898-1.302299 31.998242-2.422279l1.864415-.204615 430.733062-32.562866c103.165684-7.799276 186.285938-98.786589 186.285938-203.617864v-475.294655c0-104.832838-83.119937-195.8204491-186.285969-203.619751l-466.412686-35.26057247-1.550104-.10995821c-4.647763-.30799799-9.27226-.41910946-13.865108-.33342169l-1.051133.02408837.437984.00690742c-2.297401-.04048564-4.595556-.06090742-6.89571-.06090742zm0 40c2.064195 0 4.12743.0183342 6.190925.0546979.305536.0053843.611155.0037653.916616-.0048555 4.217424-.1190259 8.487814-.0164554 12.801154.309631l466.412686 35.2605725c82.173566 6.2122817 149.301345 79.6940051 149.301345 163.7335691v475.294655c0 84.03794-67.128034 157.519422-149.301345 163.731684l-431.060566 32.588638c-.235329.017791-.470325.039746-.704877.065855-10.29655 1.14614-20.663572 1.96931-31.459971 2.455019l-2.612749.11284-.574523.03822c-3.701177.279808-7.38058.395787-11.034012.349621l-1.368812-.024909c-.231507-.005502-.463093-.006983-.694651-.004443l-2.781669.024972c-1.369279.014233-2.70872.014233-4.029551.014233-39.196182 0-97.884582-23.109602-146.459151-58.388941-52.3259968-38.003972-83.918123-82.928272-83.918123-122.3866v-512.446886c0-40.435932 29.6037027-85.470467 78.985897-122.582342 47.501296-35.6983363 105.977626-58.195231 151.391377-58.195231z"
       fill-rule="nonzero"
       id="path1" />
    <path
       d="m121.119631 206.593322v545.81552c0 113.92058 79.709403 201.121578 178.648334 193.646355l466.694226-35.260572c97.972517-7.402207 177.141551-94.01205 177.141551-193.646355v-475.294655c0-99.635884-79.168733-186.2460104-177.141551-193.6482396l-466.694226-35.2605725c-98.939239-7.47524615-178.648334 79.7261254-178.648334 193.6485191zm177.141551-173.7053598 466.694226 35.2605725c87.478656 6.6093543 158.648334 84.4685623 158.648334 173.7050803v475.294655c0 89.234909-71.169948 167.093861-158.648334 173.703195l-466.694226 35.260573c-86.511971 6.536317-157.141551-70.731479-157.141551-173.703196v-545.81552c0-102.973561 70.629316-180.2416972 157.141551-173.7053598z"
       fill-rule="nonzero"
       id="path2" />
    <path
       d="m544.554786 319.064523c17.82691 1.12342 32.665957 16.232962 33.331187 33.803008l.015811.53316 3.093469 144.608924c18.619382 10.719258 30.42227 29.615984 30.983864 50.19832.899854 32.979445-27.394636 61.543024-63.077465 63.67243-35.68283 2.129406-64.795527-24.423526-64.901652-59.189803-.065094-21.478275 10.932088-41.638281 28.895654-53.401882l.545334-.35132-1.261194-148.732215c-.155228-18.305883 14.368011-32.27539 32.374992-31.140622zm-.310972 10.972102c-11.839733-.688645-21.39282 8.416153-21.463849 20.364468l.000833.370437 1.622926 155.117537-2.904474 1.65227c-16.422673 9.390602-26.592162 26.909893-26.49925 45.624564.143148 28.507888 24.024907 50.37684 53.236236 48.748781s52.42634-25.163727 51.749325-52.464113c-.439954-17.740947-10.897604-33.94786-27.293939-42.524534l-.502954-.262025-2.951081-1.521577-1.68862-88.939892-10.013252-.210378c-3.09635-.065055-5.644671-2.591151-5.693299-5.643646-.047412-2.976184 2.294098-5.340693 5.275081-5.3832l.230537.00134 9.992492.257277-.284855-15.003364-9.964122-.321369c-3.081158-.099375-5.617203-2.655491-5.665796-5.705776-.047412-2.976184 2.282395-5.314257 5.248712-5.323631l.229404.003902 9.943362.368267-.284897-15.00556-9.914988-.432368c-3.065964-.133699-5.589664-2.715417-5.638291-5.767912-.047378-2.974029 2.270693-5.287711 5.222341-5.264053l.228269.006459 9.894228.479266-.007004-.368881c-.226033-11.905201-10.141284-22.156543-22.103075-22.852289zm2.21527 108.963375c5.299853.061095 9.682489 4.228785 9.917091 9.366789l.008582.276159 1.112672 67.457913c16.58302 3.701863 29.120753 17.614115 29.494125 34.549376.442411 20.066736-16.550166 37.213499-37.953126 38.297501-21.407613 1.084238-38.880977-14.832788-39.037359-35.550343-.128657-17.044434 11.372444-31.663821 27.198141-36.546835l.480495-.1441-.868924-68.207187c-.067621-5.307995 4.251547-9.560154 9.648303-9.499273z"
       id="path3" />
  </g>
  <circle
     style="fill:#000000;stroke:none;stroke-width:6.75343;stroke-dasharray:none"
     id="path4"
     cx="56.640511"
     cy="274.41592"
     r="6.2579975" />
  <circle
     style="fill:#000000;stroke:none;stroke-width:6.75343;stroke-dasharray:none"
     id="circle4"
     cx="75.21801"
     cy="277.43192"
     r="6.2579975" />
  <circle
     style="fill:#000000;stroke:none;stroke-width:6.75343;stroke-dasharray:none"
     id="circle5"
     cx="93.571022"
     cy="280.82306"
     r="6.2579975" />
  <circle
     style="fill:#000000;stroke:none;stroke-width:6.75343;stroke-dasharray:none"
     id="circle6"
     cx="112.14852"
     cy="283.83902"
     r="6.2579975" />
  <circle
     style="fill:#000000;stroke:none;stroke-width:6.75343;stroke-dasharray:none"
     id="circle98"
     cx="56.640511"
     cy="301.68213"
     r="6.2579975" />
  <circle
     style="fill:#000000;stroke:none;stroke-width:6.75343;stroke-dasharray:none"
     id="circle99"
     cx="75.21801"
     cy="304.69812"
     r="6.2579975" />
  <circle
     style="fill:#000000;stroke:none;stroke-width:6.75343;stroke-dasharray:none"
     id="circle100"
     cx="93.571022"
     cy="308.08926"
     r="6.2579975" />
  <circle
     style="fill:#000000;stroke:none;stroke-width:6.75343;stroke-dasharray:none"
     id="circle101"
     cx="112.14852"
     cy="311.10522"
     r="6.2579975" />
  <circle
     style="fill:#000000;stroke:none;stroke-width:6.75343;stroke-dasharray:none"
     id="circle102"
     cx="56.640511"
     cy="328.01849"
     r="6.2579975" />
  <circle
     style="fill:#000000;stroke:none;stroke-width:6.75343;stroke-dasharray:none"
     id="circle103"
     cx="75.21801"
     cy="331.03448"
     r="6.2579975" />
  <circle
     style="fill:#000000;stroke:none;stroke-width:6.75343;stroke-dasharray:none"
     id="circle104"
     cx="93.571022"
     cy="334.42563"
     r="6.2579975" />
  <circle
     style="fill:#000000;stroke:none;stroke-width:6.75343;stroke-dasharray:none"
     id="circle105"
     cx="112.14852"
     cy="337.44162"
     r="6.2579975" />
  <circle
     style="fill:#000000;stroke:none;stroke-width:6.75343;stroke-dasharray:none"
     id="circle106"
     cx="56.640511"
     cy="355.2847"
     r="6.2579975" />
  <circle
     style="fill:#000000;stroke:none;stroke-width:6.75343;stroke-dasharray:none"
     id="circle107"
     cx="75.21801"
     cy="358.30069"
     r="6.2579975" />
  <circle
     style="fill:#000000;stroke:none;stroke-width:6.75343;stroke-dasharray:none"
     id="circle108"
     cx="93.571022"
     cy="361.69183"
     r="6.2579975" />
  <circle
     style="fill:#000000;stroke:none;stroke-width:6.75343;stroke-dasharray:none"
     id="circle109"
     cx="112.14852"
     cy="364.70779"
     r="6.2579975" />
  <circle
     style="fill:#000000;stroke:none;stroke-width:6.75343;stroke-dasharray:none"
     id="circle110"
     cx="56.640511"
     cy="382.77899"
     r="6.2579975" />
  <circle
     style="fill:#000000;stroke:none;stroke-width:6.75343;stroke-dasharray:none"
     id="circle111"
     cx="75.21801"
     cy="385.79498"
     r="6.2579975" />
  <circle
     style="fill:#000000;stroke:none;stroke-width:6.75343;stroke-dasharray:none"
     id="circle112"
     cx="93.571022"
     cy="389.18613"
     r="6.2579975" />
  <circle
     style="fill:#000000;stroke:none;stroke-width:6.75343;stroke-dasharray:none"
     id="circle113"
     cx="112.14852"
     cy="392.20209"
     r="6.2579975" />
  <circle
     style="fill:#000000;stroke:none;stroke-width:6.75343;stroke-dasharray:none"
     id="circle114"
     cx="56.640511"
     cy="410.0452"
     r="6.2579975" />
  <circle
     style="fill:#000000;stroke:none;stroke-width:6.75343;stroke-dasharray:none"
     id="circle115"
     cx="75.21801"
     cy="413.06119"
     r="6.2579975" />
  <circle
     style="fill:#000000;stroke:none;stroke-width:6.75343;stroke-dasharray:none"
     id="circle116"
     cx="93.571022"
     cy="416.45233"
     r="6.2579975" />
  <circle
     style="fill:#000000;stroke:none;stroke-width:6.75343;stroke-dasharray:none"
     id="circle117"
     cx="112.14852"
     cy="419.46829"
     r="6.2579975" />
  <circle
     style="fill:#000000;stroke:none;stroke-width:6.75343;stroke-dasharray:none"
     id="circle118"
     cx="56.640511"
     cy="436.38156"
     r="6.2579975" />
  <circle
     style="fill:#000000;stroke:none;stroke-width:6.75343;stroke-dasharray:none"
     id="circle119"
     cx="75.21801"
     cy="439.39755"
     r="6.2579975" />
  <circle
     style="fill:#000000;stroke:none;stroke-width:6.75343;stroke-dasharray:none"
     id="circle120"
     cx="93.571022"
     cy="442.7887"
     r="6.2579975" />
  <circle
     style="fill:#000000;stroke:none;stroke-width:6.75343;stroke-dasharray:none"
     id="circle121"
     cx="112.14852"
     cy="445.80469"
     r="6.2579975" />
  <circle
     style="fill:#000000;stroke:none;stroke-width:6.75343;stroke-dasharray:none"
     id="circle122"
     cx="56.640511"
     cy="463.64777"
     r="6.2579975" />
  <circle
     style="fill:#000000;stroke:none;stroke-width:6.75343;stroke-dasharray:none"
     id="circle123"
     cx="75.21801"
     cy="466.66376"
     r="6.2579975" />
  <circle
     style="fill:#000000;stroke:none;stroke-width:6.75343;stroke-dasharray:none"
     id="circle124"
     cx="93.571022"
     cy="470.0549"
     r="6.2579975" />
  <circle
     style="fill:#000000;stroke:none;stroke-width:6.75343;stroke-dasharray:none"
     id="circle125"
     cx="112.14852"
     cy="473.07086"
     r="6.2579975" />
  <circle
     style="fill:#000000;stroke:none;stroke-width:6.75343;stroke-dasharray:none"
     id="circle126"
     cx="56.640511"
     cy="490.35269"
     r="6.2579975" />
  <circle
     style="fill:#000000;stroke:none;stroke-width:6.75343;stroke-dasharray:none"
     id="circle127"
     cx="75.21801"
     cy="493.36868"
     r="6.2579975" />
  <circle
     style="fill:#000000;stroke:none;stroke-width:6.75343;stroke-dasharray:none"
     id="circle128"
     cx="93.571022"
     cy="496.75983"
     r="6.2579975" />
  <circle
     style="fill:#000000;stroke:none;stroke-width:6.75343;stroke-dasharray:none"
     id="circle129"
     cx="112.14852"
     cy="499.77582"
     r="6.2579975" />
  <circle
     style="fill:#000000;stroke:none;stroke-width:6.75343;stroke-dasharray:none"
     id="circle130"
     cx="56.640511"
     cy="517.6189"
     r="6.2579975" />
  <circle
     style="fill:#000000;stroke:none;stroke-width:6.75343;stroke-dasharray:none"
     id="circle131"
     cx="75.21801"
     cy="520.63489"
     r="6.2579975" />
  <circle
     style="fill:#000000;stroke:none;stroke-width:6.75343;stroke-dasharray:none"
     id="circle132"
     cx="93.571022"
     cy="524.026"
     r="6.2579975" />
  <circle
     style="fill:#000000;stroke:none;stroke-width:6.75343;stroke-dasharray:none"
     id="circle133"
     cx="112.14852"
     cy="527.04199"
     r="6.2579975" />
  <circle
     style="fill:#000000;stroke:none;stroke-width:6.75343;stroke-dasharray:none"
     id="circle134"
     cx="56.640511"
     cy="543.95526"
     r="6.2579975" />
  <circle
     style="fill:#000000;stroke:none;stroke-width:6.75343;stroke-dasharray:none"
     id="circle135"
     cx="75.21801"
     cy="546.97125"
     r="6.2579975" />
  <circle
     style="fill:#000000;stroke:none;stroke-width:6.75343;stroke-dasharray:none"
     id="circle136"
     cx="93.571022"
     cy="550.36237"
     r="6.2579975" />
  <circle
     style="fill:#000000;stroke:none;stroke-width:6.75343;stroke-dasharray:none"
     id="circle137"
     cx="112.14852"
     cy="553.37836"
     r="6.2579975" />
  <circle
     style="fill:#000000;stroke:none;stroke-width:6.75343;stroke-dasharray:none"
     id="circle138"
     cx="56.640511"
     cy="571.2215"
     r="6.2579975" />
  <circle
     style="fill:#000000;stroke:none;stroke-width:6.75343;stroke-dasharray:none"
     id="circle139"
     cx="75.21801"
     cy="574.23749"
     r="6.2579975" />
  <circle
     style="fill:#000000;stroke:none;stroke-width:6.75343;stroke-dasharray:none"
     id="circle140"
     cx="93.571022"
     cy="577.6286"
     r="6.2579975" />
  <circle
     style="fill:#000000;stroke:none;stroke-width:6.75343;stroke-dasharray:none"
     id="circle141"
     cx="112.14852"
     cy="580.64459"
     r="6.2579975" />
  <circle
     style="fill:#000000;stroke:none;stroke-width:6.75343;stroke-dasharray:none"
     id="circle142"
     cx="56.640511"
     cy="598.71576"
     r="6.2579975" />
  <circle
     style="fill:#000000;stroke:none;stroke-width:6.75343;stroke-dasharray:none"
     id="circle143"
     cx="75.21801"
     cy="601.73175"
     r="6.2579975" />
  <circle
     style="fill:#000000;stroke:none;stroke-width:6.75343;stroke-dasharray:none"
     id="circle144"
     cx="93.571022"
     cy="605.12292"
     r="6.2579975" />
  <circle
     style="fill:#000000;stroke:none;stroke-width:6.75343;stroke-dasharray:none"
     id="circle145"
     cx="112.14852"
     cy="608.13885"
     r="6.2579975" />
  <circle
     style="fill:#000000;stroke:none;stroke-width:6.75343;stroke-dasharray:none"
     id="circle146"
     cx="56.640511"
     cy="625.98199"
     r="6.2579975" />
  <circle
     style="fill:#000000;stroke:none;stroke-width:6.75343;stroke-dasharray:none"
     id="circle147"
     cx="75.21801"
     cy="628.99799"
     r="6.2579975" />
  <circle
     style="fill:#000000;stroke:none;stroke-width:6.75343;stroke-dasharray:none"
     id="circle148"
     cx="93.571022"
     cy="632.3891"
     r="6.2579975" />
  <circle
     style="fill:#000000;stroke:none;stroke-width:6.75343;stroke-dasharray:none"
     id="circle149"
     cx="112.14852"
     cy="635.40509"
     r="6.2579975" />
  <circle
     style="fill:#000000;stroke:none;stroke-width:6.75343;stroke-dasharray:none"
     id="circle150"
     cx="56.640511"
     cy="652.31836"
     r="6.2579975" />
  <circle
     style="fill:#000000;stroke:none;stroke-width:6.75343;stroke-dasharray:none"
     id="circle151"
     cx="75.21801"
     cy="655.33435"
     r="6.2579975" />
  <circle
     style="fill:#000000;stroke:none;stroke-width:6.75343;stroke-dasharray:none"
     id="circle152"
     cx="93.571022"
     cy="658.72546"
     r="6.2579975" />
  <circle
     style="fill:#000000;stroke:none;stroke-width:6.75343;stroke-dasharray:none"
     id="circle153"
     cx="112.14852"
     cy="661.74146"
     r="6.2579975" />
  <circle
     style="fill:#000000;stroke:none;stroke-width:6.75343;stroke-dasharray:none"
     id="circle154"
     cx="56.640511"
     cy="679.58453"
     r="6.2579975" />
  <circle
     style="fill:#000000;stroke:none;stroke-width:6.75343;stroke-dasharray:none"
     id="circle155"
     cx="75.21801"
     cy="682.60052"
     r="6.2579975" />
  <circle
     style="fill:#000000;stroke:none;stroke-width:6.75343;stroke-dasharray:none"
     id="circle156"
     cx="93.571022"
     cy="685.9917"
     r="6.2579975" />
  <circle
     style="fill:#000000;stroke:none;stroke-width:6.75343;stroke-dasharray:none"
     id="circle157"
     cx="112.14852"
     cy="689.00763"
     r="6.2579975" />
</svg>
