<?xml version="1.0" encoding="UTF-8" standalone="no"?>
<svg
   height="960"
   viewBox="0 0 960 960"
   width="960"
   version="1.1"
   id="svg3"
   sodipodi:docname="track-opto.svg"
   inkscape:version="1.4.1-rc (06eac75fbf, 2025-03-29)"
   xmlns:inkscape="http://www.inkscape.org/namespaces/inkscape"
   xmlns:sodipodi="http://sodipodi.sourceforge.net/DTD/sodipodi-0.dtd"
   xmlns="http://www.w3.org/2000/svg"
   xmlns:svg="http://www.w3.org/2000/svg">
  <defs
     id="defs3" />
  <sodipodi:namedview
     id="namedview3"
     pagecolor="#ffffff"
     bordercolor="#000000"
     borderopacity="0.25"
     inkscape:showpageshadow="2"
     inkscape:pageopacity="0.0"
     inkscape:pagecheckerboard="0"
     inkscape:deskcolor="#d1d1d1"
     inkscape:zoom="0.725"
     inkscape:cx="425.51724"
     inkscape:cy="400"
     inkscape:window-width="1580"
     inkscape:window-height="1200"
     inkscape:window-x="970"
     inkscape:window-y="182"
     inkscape:window-maximized="0"
     inkscape:current-layer="svg3" />
  <path
     d="M 277.37727,3 C 222.58756,3 155.95886,28.633258 101.95473,69.218629 43.48484,113.16012 7,168.66256 7,223.77757 V 736.22446 C 7,791.07311 45.771511,846.20656 107.41201,890.97559 162.28763,930.83133 228.74474,957 277.37727,957 h 1.41814 1.43145 l 2.91336,-0.0268 1.20378,-0.0122 1.21785,0.0235 c 4.34688,0.0598 8.71395,-0.0537 13.09567,-0.34167 l 1.42548,-0.10185 2.03534,-0.0851 c 10.96311,-0.49004 21.5299,-1.3023 31.99824,-2.42228 L 335.981,953.829 766.71406,921.26613 C 869.87975,913.46686 953,822.47954 953,717.64827 V 242.35361 C 953,137.52078 869.88006,46.533166 766.71403,38.733864 L 300.30134,3.4732915 298.75124,3.3633333 C 294.10348,3.0553353 289.47898,2.9442239 284.88613,3.0299116 L 283.835,3.054 284.27298,3.06091 C 281.97558,3.0204218 279.67743,3 277.37727,3 Z m 0,40 c 2.0642,0 4.12743,0.01833 6.19093,0.0547 0.30553,0.0054 0.61115,0.0038 0.91661,-0.0049 4.21743,-0.119025 8.48782,-0.01646 12.80116,0.309631 L 763.69865,78.620046 C 845.87222,84.832328 913,158.31405 913,242.35362 v 475.29465 c 0,84.03794 -67.12803,157.51942 -149.30135,163.73168 l -431.06056,32.58864 c -0.23533,0.0178 -0.47033,0.0398 -0.70488,0.0659 -10.29655,1.14614 -20.66357,1.96931 -31.45997,2.45502 l -2.61275,0.11284 -0.57452,0.0382 c -3.70118,0.2798 -7.38058,0.39578 -11.03401,0.34962 l -1.36882,-0.0249 c -0.2315,-0.005 -0.46309,-0.007 -0.69465,-0.004 l -2.78167,0.025 C 280.03755,917 278.6981,917 277.37727,917 238.18109,917 179.49269,893.8904 130.91812,858.61106 78.592126,820.60709 47,775.68279 47,736.22446 V 223.77757 C 47,183.34164 76.603703,138.30711 125.9859,101.19523 173.48719,65.496895 231.96352,43 277.37727,43 Z"
     fill-rule="nonzero"
     id="path1"
     style="fill:#000000" />
  <path
     d="m 121.11963,206.59332 v 545.81552 c 0,113.92058 79.7094,201.12158 178.64833,193.64636 l 466.69423,-35.26058 c 97.97252,-7.4022 177.14155,-94.01205 177.14155,-193.64635 V 241.85362 c 0,-99.63589 -79.16873,-186.246015 -177.14155,-193.648245 L 299.76797,12.944803 C 200.82873,5.4695568 121.11963,92.670928 121.11963,206.59332 Z M 298.26118,32.887962 764.95541,68.148535 c 87.47865,6.609354 158.64833,84.468565 158.64833,173.705075 v 475.29466 c 0,89.23491 -71.16995,167.09386 -158.64833,173.70319 L 298.26118,926.11204 C 211.74921,932.64836 141.11963,855.38056 141.11963,752.40884 V 206.59332 c 0,-102.97356 70.62932,-180.241695 157.14155,-173.705358 z"
     fill-rule="nonzero"
     id="path2"
     style="fill:#000000" />
  <path
     style="fill:none;stroke:#000000;stroke-width:20;stroke-linecap:round;stroke-linejoin:round"
     d="M 377.93104,117.24138 245.51724,270.34483 H 373.79311 L 241.37931,419.31034"
     id="path3" />
  <circle
     style="fill:none;stroke:#000000;stroke-width:20;stroke-linecap:round;stroke-linejoin:round"
     id="path4"
     cx="531.03448"
     cy="492.41379"
     r="144.82759" />
  <circle
     style="fill:#000000;stroke:#000000;stroke-width:20;stroke-linecap:round;stroke-linejoin:round"
     id="path5"
     cx="532.41382"
     cy="427.58621"
     r="27.586206" />
  <circle
     style="fill:#000000;stroke:#000000;stroke-width:20;stroke-linecap:round;stroke-linejoin:round"
     id="circle6"
     cx="475.86209"
     cy="522.75867"
     r="27.586206" />
  <circle
     style="fill:#000000;stroke:#000000;stroke-width:20;stroke-linecap:round;stroke-linejoin:round"
     id="circle7"
     cx="587.58624"
     cy="522.75867"
     r="27.586206" />
</svg>
