<?xml version="1.0" encoding="UTF-8" standalone="no"?>
<svg
   height="960"
   version="1.2"
   width="960"
   id="svg1"
   sodipodi:docname="outdoor-sensor.svg"
   inkscape:version="1.3.1 (9b9bdc1480, 2023-11-25, custom)"
   xmlns:inkscape="http://www.inkscape.org/namespaces/inkscape"
   xmlns:sodipodi="http://sodipodi.sourceforge.net/DTD/sodipodi-0.dtd"
   xmlns="http://www.w3.org/2000/svg"
   xmlns:svg="http://www.w3.org/2000/svg">
  <sodipodi:namedview
     id="namedview1"
     pagecolor="#ffffff"
     bordercolor="#000000"
     borderopacity="0.25"
     inkscape:showpageshadow="2"
     inkscape:pageopacity="0.0"
     inkscape:pagecheckerboard="0"
     inkscape:deskcolor="#d1d1d1"
     inkscape:zoom="0.3625"
     inkscape:cx="184.82759"
     inkscape:cy="482.75862"
     inkscape:window-width="1452"
     inkscape:window-height="1203"
     inkscape:window-x="117"
     inkscape:window-y="68"
     inkscape:window-maximized="0"
     inkscape:current-layer="layer2" />
  <defs
     id="defs1">
    <inkscape:perspective
       sodipodi:type="inkscape:persp3d"
       inkscape:vp_x="-90.751197 : 601.24042 : 1"
       inkscape:vp_y="940.03173 : -848.04143 : 0"
       inkscape:vp_z="1043.0169 : 1313.9621 : 1"
       inkscape:persp3d-origin="325.72775 : 1093.2879 : 1"
       id="perspective2" />
  </defs>
  <g
     inkscape:groupmode="layer"
     id="layer2"
     inkscape:label="Layer 2"
     style="display:inline">
    <path
       style="fill:none;stroke:#000000;stroke-width:20;stroke-linecap:round;stroke-linejoin:miter;stroke-miterlimit:4;stroke-dasharray:none"
       d="m 253.83907,39.080137 c 0,0 -36.07556,15.289096 -36.04526,44.665612 0.0303,29.376511 0,808.365981 0,808.365981 0,0 4.54935,27.86385 28.11646,35.86965"
       id="path9" />
    <g
       id="g13"
       transform="rotate(45,565.40639,490.35796)">
      <path
         style="fill:none;stroke:#000000;stroke-width:20;stroke-linecap:round;stroke-linejoin:round;stroke-miterlimit:4;stroke-dasharray:none"
         d="m 565.07905,441.95371 v 96.8085"
         id="path12" />
      <path
         style="fill:none;stroke:#000000;stroke-width:20;stroke-linecap:round;stroke-linejoin:round;stroke-miterlimit:4;stroke-dasharray:none"
         d="m 613.81064,490.76282 h -96.8085"
         id="path13" />
    </g>
    <path
       d="m 334.73067,112.81998 c 17.82691,1.12342 32.66595,16.23296 33.33118,33.80301 l 0.0158,0.53316 3.09347,144.60892 c 18.61939,10.71926 30.42227,29.61599 30.98387,50.19833 0.89985,32.97944 -27.39464,61.54302 -63.07747,63.67242 -35.68283,2.12941 -64.79552,-24.42352 -64.90165,-59.1898 -0.0651,-21.47827 10.93209,-41.63828 28.89565,-53.40188 l 0.54534,-0.35132 -1.2612,-148.73221 c -0.15522,-18.30589 14.36802,-32.2754 32.375,-31.14063 z m -0.31098,10.97211 c -11.83973,-0.68865 -21.39282,8.41615 -21.46384,20.36446 l 8.3e-4,0.37044 1.62292,155.11754 -2.90447,1.65227 c -16.42267,9.3906 -26.59216,26.90989 -26.49925,45.62456 0.14315,28.50789 24.02491,50.37684 53.23624,48.74878 29.21132,-1.62806 52.42634,-25.16373 51.74932,-52.46411 -0.43995,-17.74095 -10.8976,-33.94786 -27.29394,-42.52454 l -0.50295,-0.26202 -2.95108,-1.52158 -1.68862,-88.93989 -10.01326,-0.21038 c -3.09635,-0.065 -5.64467,-2.59115 -5.69329,-5.64364 -0.0474,-2.97619 2.29409,-5.3407 5.27508,-5.3832 l 0.23053,0.001 9.9925,0.25727 -0.28486,-15.00336 -9.96412,-0.32137 c -3.08116,-0.0994 -5.6172,-2.65549 -5.6658,-5.70577 -0.0474,-2.97619 2.2824,-5.31426 5.24871,-5.32364 l 0.22941,0.004 9.94336,0.36826 -0.2849,-15.00556 -9.91498,-0.43236 c -3.06597,-0.1337 -5.58967,-2.71542 -5.6383,-5.76792 -0.0474,-2.97403 2.2707,-5.28771 5.22235,-5.26405 l 0.22826,0.006 9.89423,0.47927 -0.007,-0.36889 c -0.22603,-11.9052 -10.14129,-22.15654 -22.10308,-22.85228 z m 2.21527,108.96337 c 5.29986,0.0611 9.68249,4.22879 9.9171,9.36679 l 0.009,0.27616 1.11267,67.45791 c 16.58302,3.70186 29.12075,17.61412 29.49412,34.54938 0.44242,20.06673 -16.55016,37.2135 -37.95312,38.2975 -21.40761,1.08424 -38.88098,-14.83279 -39.03736,-35.55034 -0.12866,-17.04444 11.37244,-31.66383 27.19814,-36.54684 l 0.4805,-0.1441 -0.86893,-68.20719 c -0.0676,-5.30799 4.25155,-9.56015 9.6483,-9.49927 z"
       id="path3"
       style="fill:#000000;fill-rule:evenodd" />
  </g>
  <g
     inkscape:groupmode="layer"
     id="layer3"
     inkscape:label="Layer 3"
     style="display:inline">
    <path
       style="fill:none;stroke:#000000;stroke-width:40;stroke-linecap:round;stroke-linejoin:round;stroke-miterlimit:4;stroke-dasharray:none"
       d="m 52.414803,889.24502 175.850747,43.34405 628.73901,-30.47119 c 0,0 59.59372,-13.45021 63.93454,-61.35229 4.34082,-47.90207 0,-739.27301 0,-739.27301 0,0 -5.55134,-35.316075 -53.30423,-39.729085 C 819.88197,57.350485 228.21184,42.390347 228.21184,42.390347 L 55.121902,79.682323 c 0,0 -22.909441,4.332401 -24.148623,26.682797 -1.239182,22.35041 0,758.09962 0,758.09962 0,0 1.198183,20.79312 21.441524,24.78028 z"
       id="path11" />
    <circle
       style="display:inline;fill:none;stroke:#000000;stroke-width:20;stroke-linecap:round;stroke-linejoin:miter;stroke-miterlimit:4;stroke-dasharray:none"
       id="path10"
       cx="565.65509"
       cy="488.4046"
       r="83.293587" />
  </g>
</svg>
