<?xml version="1.0" encoding="UTF-8" standalone="no"?>
<!-- Uploaded to: SVG Repo, www.svgrepo.com, Generator: SVG Repo Mixer Tools -->

<svg
   fill="#000000"
   height="960"
   width="960"
   version="1.1"
   id="Layer_1"
   viewBox="0 0 586.08 586.08"
   xml:space="preserve"
   sodipodi:docname="thermometer-icon.svg"
   inkscape:version="1.3.1 (9b9bdc1480, 2023-11-25, custom)"
   xmlns:inkscape="http://www.inkscape.org/namespaces/inkscape"
   xmlns:sodipodi="http://sodipodi.sourceforge.net/DTD/sodipodi-0.dtd"
   xmlns="http://www.w3.org/2000/svg"
   xmlns:svg="http://www.w3.org/2000/svg"><defs
   id="defs20" /><sodipodi:namedview
   id="namedview20"
   pagecolor="#ffffff"
   bordercolor="#000000"
   borderopacity="0.25"
   inkscape:showpageshadow="2"
   inkscape:pageopacity="0.0"
   inkscape:pagecheckerboard="0"
   inkscape:deskcolor="#d1d1d1"
   inkscape:zoom="1.0325"
   inkscape:cx="582.08232"
   inkscape:cy="476.51332"
   inkscape:window-width="1789"
   inkscape:window-height="1285"
   inkscape:window-x="626"
   inkscape:window-y="56"
   inkscape:window-maximized="0"
   inkscape:current-layer="Layer_1" />
<g
   transform="matrix(1.19947,0,0,1.19947,0.08498418,-648.1456)"
   id="g20">
	<g
   id="g19">
		<g
   id="g18">
			<path
   d="m 361.7,580.26 c 5.6,0 10,-4.5 10,-10 v -19.9 c 0,-5.5 -4.5,-10 -10,-10 -5.5,0 -10,4.5 -10,10 v 19.9 c 0,5.5 4.5,10 10,10 z"
   id="path1" />
			<path
   d="m 361.7,723.56 c -5.5,0 -10,4.5 -10,10 v 19.9 c 0,5.5 4.5,10 10,10 5.6,0 10,-4.5 10,-10 v -19.9 c 0,-5.5 -4.5,-10 -10,-10 z"
   id="path2" />
			<path
   d="m 289.7,651.96 c 0,-5.5 -4.5,-10 -10,-10 h -19.9 c -5.5,0 -10,4.5 -10,10 0,5.5 4.5,10 10,10 h 19.9 c 5.5,0 10,-4.5 10,-10 z"
   id="path3" />
			<path
   d="m 463.8,641.96 h -19.9 c -5.5,0 -10,4.5 -10,10 0,5.5 4.5,10 10,10 h 19.9 c 5.5,0 10,-4.5 10,-10 0,-5.5 -4.5,-10 -10,-10 z"
   id="path4" />
			<path
   d="m 433.5,601.26 v 0 c 2.6,0 5.3,-1.1 7.3,-3.2 l 10,-10.7 c 3.8,-4 3.5,-10.3 -0.5,-14.1 -4,-3.8 -10.3,-3.5 -14.1,0.5 l -10,10.7 c -3.8,4 -3.5,10.3 0.5,14.1 1.9,1.8 4.4,2.7 6.8,2.7 z"
   id="path5" />
			<path
   d="m 282.7,598.06 c 2,2.1 4.6,3.2 7.3,3.2 v 0 c 2.5,0 4.9,-0.9 6.8,-2.7 4,-3.7 4.3,-10.1 0.5,-14.1 l -10,-10.7 c -3.7,-4 -10.1,-4.3 -14.1,-0.5 -4,3.7 -4.3,10.1 -0.5,14.1 z"
   id="path6" />
			<path
   d="m 440.4,706.36 c -3.9,-3.9 -10.2,-3.9 -14.1,0 -3.9,3.9 -3.9,10.2 0,14.1 l 10,9.9 c 2,1.9 4.5,2.9 7.1,2.9 2.6,0 5.2,-0.9 7,-2.9 3.9,-3.9 3.9,-10.2 0,-14.1 z"
   id="path7" />
			<path
   d="m 283,706.36 -10,9.9 c -3.9,3.9 -3.9,10.2 0,14.1 2,1.9 4.5,2.9 7.1,2.9 2.5,0 5.1,-0.9 7,-2.9 l 10,-9.9 c 3.9,-3.9 3.9,-10.2 0,-14.1 -3.9,-3.9 -10.2,-3.9 -14.1,0 z"
   id="path8" />
			<path
   d="m 177.3,907.66 v -245.5 c 0,-5.5 -4.5,-10 -10,-10 -5.5,0 -10,4.5 -10,10 v 245.5 c -17.6,4.5 -30.7,20.4 -30.7,39.3 0,22.4 18.2,40.5 40.7,40.5 22.5,0 40.7,-18.2 40.7,-40.5 0,-18.9 -13.1,-34.8 -30.7,-39.3 z m -10,59.9 c -11.4,0 -20.7,-9.2 -20.7,-20.5 0,-11.3 9.3,-20.5 20.7,-20.5 11.4,0 20.7,9.2 20.7,20.5 0,11.3 -9.3,20.5 -20.7,20.5 z"
   id="path9" />
			<path
   d="m 218.1,880.86 v -218.7 c 0,-13.7 -5.3,-26.5 -15,-36 -9.5,-9.3 -22.2,-14.5 -35.7,-14.5 -13.5,0 -26.2,5.1 -35.7,14.5 -9.7,9.5 -15,22.3 -15,36 v 218.7 c -26.3,21.1 -37.2,56.5 -27.2,89.6 10.5,34.9 41.7,58.3 77.8,58.3 36.1,0 67.3,-23.4 78,-58.3 10,-33.2 -0.9,-68.5 -27.2,-89.6 z m 7.8,83.9 c -7.9,26.3 -31.5,44 -58.7,44 -27.2,0 -50.8,-17.7 -58.7,-44 -8,-26.6 1.6,-55 23.8,-70.6 2.7,-1.9 4.3,-4.9 4.3,-8.2 v -223.7 c 0,-17.1 13.5,-30.5 30.7,-30.5 17.2,0 30.6,13.4 30.5,30.5 v 223.7 c 0,3.3 1.6,6.3 4.3,8.2 22.3,15.6 31.8,44 23.8,70.6 z"
   id="path10" />
			<path
   d="m 361.4,591.06 c -33.4,0 -60.6,27.5 -60.6,61.2 0,16 6.4,31.1 17.9,42.6 11.5,11.5 26.7,17.8 42.7,17.8 v 0 c 33.8,0 61.4,-27.1 61.4,-60.4 0,-33.8 -27.5,-61.2 -61.4,-61.2 z m 0,101.7 c -22,0 -40.6,-18.5 -40.6,-40.4 0,-22.7 18.2,-41.2 40.6,-41.2 22.8,0 41.4,18.4 41.4,41.2 0,22.3 -18.6,40.4 -41.4,40.4 z"
   id="path11" />
			<path
   d="M 75.2,875.96 H 24.6 c -5.5,0 -10,4.5 -10,10 0,5.5 4.5,10 10,10 h 50.7 c 5.5,0 10,-4.5 9.9,-10 0,-5.5 -4.5,-10 -10,-10 z"
   id="path12" />
			<path
   d="M 75.3,753.76 H 44.6 c -5.5,0 -10,4.5 -10,10 0,5.5 4.5,10 10,10 h 30.7 c 5.5,0 10,-4.5 10,-10 0,-5.5 -4.5,-10 -10,-10 z"
   id="path13" />
			<path
   d="m 24.6,733.26 h 50.7 c 5.5,0 10,-4.4 9.9,-10 0,-5.5 -4.5,-10 -10,-10 H 24.6 c -5.5,0 -10,4.5 -10,10 0,5.5 4.5,10 10,10 z"
   id="path14" />
			<path
   d="M 75.3,672.86 H 44.6 c -5.5,0 -10,4.5 -10,10 0,5.5 4.5,10 10,10 h 30.7 c 5.5,0 10,-4.5 10,-10 0,-5.5 -4.5,-10 -10,-10 z"
   id="path15" />
			<path
   d="m 24.6,651.66 h 50.7 c 5.5,0 9.9,-4.5 9.9,-10 0,-5.5 -4.5,-10 -10,-10 H 24.6 c -5.5,0 -10,4.5 -10,10 0,5.5 4.5,10 10,10 z"
   id="path16" />
			<path
   d="M 75.3,835.46 H 44.6 c -5.5,0 -10,4.5 -10,10 0,5.5 4.5,10 10,10 h 30.7 c 5.5,0 10,-4.5 10,-10 0,-5.5 -4.5,-10 -10,-10 z"
   id="path17" />
			<path
   d="m 24.6,814.96 h 50.7 c 5.5,0 9.9,-4.5 9.9,-10 0,-5.5 -4.5,-10 -10,-10 H 24.6 c -5.5,0 -10,4.5 -10,10 0,5.5 4.5,10 10,10 z"
   id="path18" />
		</g>
	</g>
</g>
</svg>
